<svg width="22" height="22" viewBox="0 0 22 22" fill="none" xmlns="http://www.w3.org/2000/svg">
<path d="M7.10384 2.29199C7.10384 1.9123 6.79604 1.60449 6.41634 1.60449C6.03664 1.60449 5.72884 1.9123 5.72884 2.29199V3.73964C4.40945 3.8453 3.5433 4.10459 2.90695 4.74093C2.2706 5.37728 2.01131 6.24344 1.90566 7.56283H20.0937C19.988 6.24344 19.7287 5.37728 19.0924 4.74093C18.456 4.10459 17.5899 3.8453 16.2705 3.73964V2.29199C16.2705 1.9123 15.9627 1.60449 15.583 1.60449C15.2033 1.60449 14.8955 1.9123 14.8955 2.29199V3.67882C14.2857 3.66699 13.6021 3.66699 12.833 3.66699H9.16634C8.39723 3.66699 7.71367 3.66699 7.10384 3.67882V2.29199Z" fill="#FE9901"/>
<path fill-rule="evenodd" clip-rule="evenodd" d="M1.83301 11.0003C1.83301 10.2312 1.83301 9.54765 1.84483 8.93783H20.1545C20.1663 9.54765 20.1663 10.2312 20.1663 11.0003V12.8337C20.1663 16.2906 20.1663 18.0191 19.0924 19.0931C18.0185 20.167 16.29 20.167 12.833 20.167H9.16634C5.70937 20.167 3.98089 20.167 2.90695 19.0931C1.83301 18.0191 1.83301 16.2906 1.83301 12.8337V11.0003ZM15.583 12.8337C16.0893 12.8337 16.4997 12.4233 16.4997 11.917C16.4997 11.4107 16.0893 11.0003 15.583 11.0003C15.0767 11.0003 14.6663 11.4107 14.6663 11.917C14.6663 12.4233 15.0767 12.8337 15.583 12.8337ZM15.583 16.5003C16.0893 16.5003 16.4997 16.0899 16.4997 15.5837C16.4997 15.0774 16.0893 14.667 15.583 14.667C15.0767 14.667 14.6663 15.0774 14.6663 15.5837C14.6663 16.0899 15.0767 16.5003 15.583 16.5003ZM11.9163 11.917C11.9163 12.4233 11.5059 12.8337 10.9997 12.8337C10.4934 12.8337 10.083 12.4233 10.083 11.917C10.083 11.4107 10.4934 11.0003 10.9997 11.0003C11.5059 11.0003 11.9163 11.4107 11.9163 11.917ZM11.9163 15.5837C11.9163 16.0899 11.5059 16.5003 10.9997 16.5003C10.4934 16.5003 10.083 16.0899 10.083 15.5837C10.083 15.0774 10.4934 14.667 10.9997 14.667C11.5059 14.667 11.9163 15.0774 11.9163 15.5837ZM6.41634 12.8337C6.9226 12.8337 7.33301 12.4233 7.33301 11.917C7.33301 11.4107 6.9226 11.0003 6.41634 11.0003C5.91008 11.0003 5.49967 11.4107 5.49967 11.917C5.49967 12.4233 5.91008 12.8337 6.41634 12.8337ZM6.41634 16.5003C6.9226 16.5003 7.33301 16.0899 7.33301 15.5837C7.33301 15.0774 6.9226 14.667 6.41634 14.667C5.91008 14.667 5.49967 15.0774 5.49967 15.5837C5.49967 16.0899 5.91008 16.5003 6.41634 16.5003Z" fill="#FE9901"/>
</svg>
