<svg width="22" height="22" viewBox="0 0 22 22" fill="none" xmlns="http://www.w3.org/2000/svg">
<circle cx="8.25065" cy="5.49967" r="3.66667" fill="#FE9901"/>
<ellipse cx="8.25065" cy="15.5846" rx="6.41667" ry="3.66667" fill="#FE9901"/>
<path d="M19.2494 15.5841C19.2494 17.1028 17.3835 18.334 15.1053 18.334C15.7765 17.6004 16.238 16.6795 16.238 15.5853C16.238 14.4899 15.7754 13.5681 15.1029 12.8341C17.3811 12.8341 19.2494 14.0653 19.2494 15.5841Z" fill="#FE9901"/>
<path d="M16.4994 5.50098C16.4994 7.01976 15.2682 8.25098 13.7494 8.25098C13.4182 8.25098 13.1007 8.19243 12.8066 8.08513C13.2403 7.32238 13.488 6.44009 13.488 5.49995C13.488 4.56051 13.2407 3.67883 12.8076 2.91647C13.1014 2.80939 13.4186 2.75098 13.7494 2.75098C15.2682 2.75098 16.4994 3.98219 16.4994 5.50098Z" fill="#FE9901"/>
</svg>
