<svg width="16" height="16" viewBox="0 0 16 16" fill="none" xmlns="http://www.w3.org/2000/svg">
<circle cx="6.00033" cy="5.99984" r="1.33333" stroke="#262626"/>
<path d="M8.66634 9.99984C8.66634 10.7362 8.66634 11.3332 5.99967 11.3332C3.33301 11.3332 3.33301 10.7362 3.33301 9.99984C3.33301 9.26346 4.52692 8.6665 5.99967 8.6665C7.47243 8.6665 8.66634 9.26346 8.66634 9.99984Z" stroke="#262626"/>
<path d="M1.33301 7.99984C1.33301 5.48568 1.33301 4.2286 2.11406 3.44755C2.89511 2.6665 4.15218 2.6665 6.66634 2.6665H9.33301C11.8472 2.6665 13.1042 2.6665 13.8853 3.44755C14.6663 4.2286 14.6663 5.48568 14.6663 7.99984C14.6663 10.514 14.6663 11.7711 13.8853 12.5521C13.1042 13.3332 11.8472 13.3332 9.33301 13.3332H6.66634C4.15218 13.3332 2.89511 13.3332 2.11406 12.5521C1.33301 11.7711 1.33301 10.514 1.33301 7.99984Z" stroke="#262626"/>
<path d="M12.667 8H10.0003" stroke="#262626" stroke-linecap="round"/>
<path d="M12.667 6H9.33366" stroke="#262626" stroke-linecap="round"/>
<path d="M12.667 10H10.667" stroke="#262626" stroke-linecap="round"/>
</svg>
