<svg width="16" height="16" viewBox="0 0 16 16" fill="none" xmlns="http://www.w3.org/2000/svg">
<path d="M6.69205 3.54395L7.12473 4.31924C7.51519 5.01889 7.35845 5.93672 6.74347 6.5517C6.74346 6.5517 6.74347 6.5517 6.74346 6.55171C6.74339 6.55178 5.99758 7.29774 7.35 8.65016C8.70198 10.0021 9.44792 9.25724 9.44846 9.2567C9.44847 9.25668 9.44847 9.25669 9.44848 9.25667C10.0635 8.64171 10.9813 8.48497 11.6809 8.87543L12.4562 9.30811C13.5127 9.89772 13.6375 11.3793 12.7088 12.308C12.1508 12.866 11.4673 13.3002 10.7116 13.3288C9.43951 13.377 7.27918 13.0551 5.11213 10.888C2.94508 8.72098 2.62314 6.56065 2.67136 5.28856C2.70001 4.5329 3.13419 3.84933 3.6922 3.29132C4.62083 2.36269 6.10244 2.48746 6.69205 3.54395Z" stroke="#262626" stroke-width="1.5" stroke-linecap="round"/>
</svg>
